╤û Encoded By .......:UnKnOwN                                                   ╤û
╤û Runtime ..........:1:40                                                      ╤û
╤û IMDb URL .........:http://www.imdb.com/title/tt1583421/                      ╤û
╤û Language .........:English                                                   ╤û
╤û File Size ........:1.07gb                                                    ╤û
╤û Release Date ......... 2013                                                  ╤û
╤û Source       ......... Russian/Always UnKnOwN                                ╤û
╤û File Type    ......... Single AVI                                            ╤û
╤û PS3 Compatible ....... You still whining about your Ps3                      ╤û
╤û Genre        ......... Action                                                ╤û
╤û                                                                              ╤û
╤û                                                                              ╤û
╤û Video                                                                        ╤û
╤û  ID                               : 0                                        ╤û
╤û  Format                           : MPEG-4 Visual                            ╤û
╤û  Format profile                   : Advanced Simple@L5                       ╤û
╤û  Format settings, BVOP            : Yes                                      ╤û
╤û  Format settings, QPel            : No                                       ╤û
╤û  Format settings, GMC             : No warppoints                            ╤û
╤û  Format settings, Matrix          : Custom                                   ╤û
╤û  Codec ID                         : XVID                                     ╤û
╤û  Codec ID/Hint                    : XviD                                     ╤û
╤û  Duration                         : 1h 40mn                                  ╤û
╤û  Bit rate                         : 1680kbps                                 ╤û
╤û  Width                            : 700pixels                                ╤û
╤û  Height                           : 282pixels                                ╤û
╤û  Display aspect ratio             : 2:45                                     ╤û
╤û  Frame rate                       : 29.000fps                                ╤û
╤û  Color space                      : YUV                                      ╤û
╤û  Chroma subsampling               : 4:2:0                                    ╤û
╤û  Bit depth                        : 8 bits                                   ╤û
╤û  Scan type                        : Progressive                              ╤û
╤û  Bits/(Pixel*Frame)               : 0.234                                    ╤û
╤û  Stream size                      : 892 MiB (86%)                            ╤û
╤û  Writing library                  : XviD 1.2.1 (UTC 2008-12-04)              ╤û
╤û                                                                              ╤û
╤û                                                                              ╤û
╤û Audio                                                                        ╤û
╤û ID                               : 1                                         ╤û
╤û Format                           : AC3                                       ╤û
╤û Format/Info                      : MPEG                                      ╤û
╤û Mode extension                   : CM (complete main)                        ╤û
╤û Codec ID                         : 2000                                      ╤û
╤û Duration                         : 1h 40mn                                   ╤û
╤û Bit rate mode                    : Constant                                  ╤û
╤û Bit rate                         : 192kbps                                   ╤û
╤û Channel(s)                       : 2channels                                 ╤û
╤û Channel positions                : Front: L C R, Side: L R, LFE              ╤û
╤û Sampling rate                    : 48.0 KHz                                  ╤û
╤û Bit depth                        : 16 bits                                   ╤û
╤û Stream size                      : 302 MiB                                   ╤û
╤û Alignment                        : Aligned on interleaves                    ╤û
╤û Interleave, duration             : 42 ms (1.00 video frame)                  ╤û
╤û Interleave, preload duration     : 512 ms                                    ╤û
╤û                                                                              ╤û
╤û                                                                              ╤û
╤û                                                                              ╤û
╤û                                                                              ╤û
╤û                                                                              ╤û
╤û                                                                              ╤û
╤û                                                                              ╤û
╤û                                 SYNOPSIS                                     ╤û
╤û  The G.I. Joes are not only fighting their mortal enemy Cobra; they are      ╤û
╤û      forced to contend with threats from within the government that          ╤û  
╤û                    jeopardize their very existence                           ╤û    
i                         RELEASE INFO                                    
╤û                                                                              ╤û
╤û          Cam needed some serious TLC all done more then watchable            ╤û
╤û         unless you are some princess who wants it perfect then pass          ╤û

Screens: 
http://s23.postimg.org/rth9dfuuz/vlcsnap_2013_03_30_13h06m06s27.png  
http://s23.postimg.org/mjcam5am3/vlcsnap_2013_03_30_15h56m51s86.png  
http://s23.postimg.org/69m4j8zy3/vlcsnap_2013_03_30_17h26m27s85.png  
http://s23.postimg.org/4j33hriez/vlcsnap_2013_03_30_17h27m04s204.png 
